%FSLAX25Y25*%
%MOIN*%
G70*
G01*
G75*
G04 Layer_Color=8388736*
%ADD10R,0.07087X0.07480*%
%ADD11R,0.01575X0.05512*%
%ADD12R,0.09055X0.07480*%
%ADD13R,0.05118X0.05118*%
%ADD14R,0.05118X0.05118*%
%ADD15O,0.02362X0.09055*%
%ADD16R,0.03150X0.03150*%
%ADD17R,0.03150X0.03150*%
%ADD18R,0.01181X0.06299*%
%ADD19C,0.00800*%
%ADD20C,0.02000*%
%ADD21C,0.07500*%
%ADD22C,0.03200*%
%ADD23C,0.05000*%
%ADD24R,0.04400X0.04400*%
%ADD25C,0.00984*%
%ADD26C,0.02362*%
%ADD27C,0.00600*%
%ADD28C,0.00787*%
%ADD29C,0.01000*%
%ADD30R,0.07887X0.08280*%
%ADD31R,0.02375X0.06312*%
%ADD32R,0.09855X0.08280*%
%ADD33R,0.05918X0.05918*%
%ADD34R,0.05918X0.05918*%
%ADD35O,0.03162X0.09855*%
%ADD36R,0.03950X0.03950*%
%ADD37R,0.03950X0.03950*%
%ADD38R,0.01981X0.07099*%
%ADD39C,0.08300*%
D30*
X272972Y489221D02*
D03*
X282028D02*
D03*
D31*
X277500Y478000D02*
D03*
X274941D02*
D03*
X280059D02*
D03*
X282618D02*
D03*
X272382D02*
D03*
D32*
X292264Y489221D02*
D03*
X262736D02*
D03*
D33*
X245000Y427732D02*
D03*
Y456732D02*
D03*
X282000Y399232D02*
D03*
X273500D02*
D03*
X310000Y436268D02*
D03*
Y456732D02*
D03*
D34*
X245000Y436000D02*
D03*
Y465000D02*
D03*
X282000Y407500D02*
D03*
X273500D02*
D03*
X310000Y428000D02*
D03*
Y465000D02*
D03*
D35*
X255079Y428587D02*
D03*
X260079D02*
D03*
X265079D02*
D03*
X270079D02*
D03*
X275079D02*
D03*
X280079D02*
D03*
X285079D02*
D03*
X290079D02*
D03*
X295079D02*
D03*
X300079D02*
D03*
X255079Y464413D02*
D03*
X260079D02*
D03*
X265079D02*
D03*
X270079D02*
D03*
X275079D02*
D03*
X280079D02*
D03*
X285079D02*
D03*
X290079D02*
D03*
X295079D02*
D03*
X300079D02*
D03*
D36*
X282000Y385000D02*
D03*
X273500D02*
D03*
D37*
X282000Y390905D02*
D03*
X273500D02*
D03*
D38*
X272776Y416500D02*
D03*
X282224D02*
D03*
X277500D02*
D03*
D39*
X292500Y375000D02*
D03*
X282500D02*
D03*
X262500D02*
D03*
X252500D02*
D03*
X272500D02*
D03*
X302500D02*
D03*
X252500Y405000D02*
D03*
Y385000D02*
D03*
Y395000D02*
D03*
Y415000D02*
D03*
X302500Y395000D02*
D03*
Y415000D02*
D03*
Y405000D02*
D03*
Y385000D02*
D03*
M02*
