M48
;Layer_Color=9474304
;FILE_FORMAT=2:4
INCH,TZ
;TYPE=PLATED
T1F00S00C0.0160
T2F00S00C0.0280
T3F00S00C0.0400
%
T01
X24100Y36350
Y38100
X26750Y36050
X29750Y36500
X28900Y38600
X28950Y40750
X26650
X27850Y43716
X28000Y44500
X27750Y45500
X27250
X28300
X28900Y45300
X29500Y45500
X29750Y45150
X30600Y45050
X30000Y43750
X30850Y42150
X26350Y45100
X24900Y44450
X31700Y45500
X31600Y41900
X31700Y40000
X31600Y37950
X31500Y47500
X31200Y49000
X29450Y47300
X24250Y48800
T02
X24300Y47750
X30000
T03
X25250Y37500
X26250
X27250
X28250
X29250
X30250
Y38500
Y39500
Y40500
Y41500
X25250
Y40500
Y39500
Y38500
M30
