M48
;Layer_Color=9474304
;FILE_FORMAT=2:5
INCH
;TYPE=PLATED
T1F00S00C0.01600
T2F00S00C0.02400
T3F00S00C0.04000
%
T01
X0241000Y0363500
Y0381000
X0267500Y0360500
X0297500Y0365000
X0287500Y0382500
X0289500Y0407500
X0266500
X0278500Y0437157
X0280000Y0445000
X0277500Y0455000
X0272500
X0283000
X0289000Y0453000
X0295000Y0455000
X0297500Y0451500
X0306000Y0450500
X0300000Y0437500
X0308500Y0421500
X0263500Y0451000
X0249000Y0444500
X0317000Y0455000
X0316000Y0419000
X0317000Y0400000
X0316000Y0379500
X0315000Y0475000
X0312000Y0490000
X0294500Y0473000
X0242500Y0488000
T02
X0243000Y0477500
X0300000
T03
X0252500Y0375000
Y0385000
Y0395000
Y0405000
Y0415000
X0302500
Y0405000
Y0395000
Y0385000
Y0375000
X0292500
X0282500
X0272500
X0262500
M30
